<?xml version="1.0" encoding="UTF-8"?>
<svg version="1.1" viewBox="0 0 85 85" xmlns="http://www.w3.org/2000/svg">
<path d="m0 10.625c6.333e-7 -5.868 4.757-10.625 10.625-10.625h63.75c5.868 0 10.625 4.757 10.625 10.625v63.75c0 5.868-4.757 10.625-10.625 10.625h-63.75c-5.868 0-10.625-4.757-10.625-10.625v-63.75zm79.688 10.625h-21.25v15.938h21.25v-15.938zm0 21.25h-21.25v15.938h21.25v-15.938zm0 21.25h-21.25v15.938h15.938c2.934 0 5.3125-2.3785 5.3125-5.3125v-10.625zm-26.562 15.938v-15.938h-21.25v15.938h21.25zm-26.562 0v-15.938h-21.25v10.625c0 2.934 2.3785 5.3125 5.3125 5.3125h15.938zm-21.25-21.25h21.25v-15.938h-21.25v15.938zm0-21.25h21.25v-15.938h-21.25v15.938zm26.562-15.938v15.938h21.25v-15.938h-21.25zm21.25 21.25h-21.25v15.938h21.25v-15.938z" fill-rule="evenodd"/>
</svg>
